<svg width="11" height="37" viewBox="0 0 11 37" fill="none" xmlns="http://www.w3.org/2000/svg">
<path d="M5.20313 0C7.11886 8.37396e-08 8.67188 1.55301 8.67188 3.46875C8.67188 5.38449 7.11886 6.9375 5.20313 6.9375C3.28739 6.9375 1.73438 5.38449 1.73438 3.46875C1.73438 1.55301 3.28739 -8.37396e-08 5.20313 0Z" fill="#06161C"/>
<path d="M5.20313 13.875C7.11886 13.875 8.67188 15.428 8.67188 17.3438C8.67188 19.2595 7.11886 20.8125 5.20313 20.8125C3.28739 20.8125 1.73438 19.2595 1.73438 17.3438C1.73438 15.428 3.28739 13.875 5.20313 13.875Z" fill="#06161C"/>
<path d="M5.20313 27.75C7.11886 27.75 8.67188 29.303 8.67188 31.2188C8.67188 33.1345 7.11886 34.6875 5.20312 34.6875C3.28739 34.6875 1.73437 33.1345 1.73438 31.2188C1.73438 29.303 3.28739 27.75 5.20313 27.75Z" fill="#06161C"/>
<path d="M5.20313 0C7.11886 8.37396e-08 8.67188 1.55301 8.67188 3.46875C8.67188 5.38449 7.11886 6.9375 5.20313 6.9375C3.28739 6.9375 1.73438 5.38449 1.73438 3.46875C1.73438 1.55301 3.28739 -8.37396e-08 5.20313 0Z" stroke="#0D3544" stroke-width="3.46875"/>
<path d="M5.20313 13.875C7.11886 13.875 8.67188 15.428 8.67188 17.3438C8.67188 19.2595 7.11886 20.8125 5.20313 20.8125C3.28739 20.8125 1.73438 19.2595 1.73438 17.3438C1.73438 15.428 3.28739 13.875 5.20313 13.875Z" stroke="#0D3544" stroke-width="3.46875"/>
<path d="M5.20313 27.75C7.11886 27.75 8.67188 29.303 8.67188 31.2188C8.67188 33.1345 7.11886 34.6875 5.20312 34.6875C3.28739 34.6875 1.73437 33.1345 1.73438 31.2188C1.73438 29.303 3.28739 27.75 5.20313 27.75Z" stroke="#0D3544" stroke-width="3.46875"/>
</svg>
