<svg width="70" height="64" viewBox="0 0 70 64" fill="none" xmlns="http://www.w3.org/2000/svg">
<path d="M37.9076 1.67422C36.6121 -0.55807 33.3879 -0.558078 32.0924 1.67422L22.9686 17.3952C22.3286 18.498 21.2224 19.2505 19.9616 19.4409L2.86298 22.023C-0.00884866 22.4567 -1.01621 26.082 1.22034 27.9347L13.9581 38.486C15.1372 39.4627 15.6916 41.0033 15.4052 42.5072L12.0732 60.0023C11.5464 62.7679 14.4502 64.9167 16.9417 63.6051L33.0422 55.1289C34.2677 54.4838 35.7323 54.4838 36.9578 55.1289L53.0583 63.6051C55.5498 64.9167 58.4536 62.7679 57.9268 60.0023L54.5948 42.5072C54.3084 41.0033 54.8628 39.4627 56.0419 38.486L68.7797 27.9347C71.0162 26.082 70.0089 22.4567 67.137 22.023L50.0384 19.4409C48.7776 19.2505 47.6714 18.498 47.0314 17.3952L37.9076 1.67422Z" fill="black"/>
</svg>